<svg width="62" height="22" viewBox="0 0 62 22" fill="none" xmlns="http://www.w3.org/2000/svg">
<mask id="mask0_338_9" style="mask-type:luminance" maskUnits="userSpaceOnUse" x="0" y="0" width="62" height="22">
<path d="M0 0H61.378V21.5652H0V0Z" fill="white"/>
</mask>
<g mask="url(#mask0_338_9)">
<path d="M16.7622 16.9387V4.11485H22.6724C23.9509 4.11485 24.9334 4.48887 25.6282 5.23556C26.323 5.98226 26.6701 6.99178 26.6701 8.24998C26.6701 9.50817 26.323 10.517 25.6282 11.2644C24.9341 12.0111 23.9441 12.3844 22.6731 12.3844H18.9834V16.932H16.7555L16.7622 16.9387ZM18.9902 10.4186H22.535C23.099 10.4186 23.5378 10.2744 23.8592 9.97991C24.1737 9.68474 24.3309 9.26534 24.3309 8.72172V7.78498C24.3309 7.24113 24.1733 6.81454 23.8592 6.52678C23.5445 6.23161 23.1051 6.08739 22.535 6.08739H18.9902V10.4254V10.4186ZM41.0925 16.9387C40.5291 16.9387 40.0965 16.775 39.7885 16.4535C39.4873 16.1327 39.3033 15.7203 39.2386 15.2223H39.1402C38.9434 15.8645 38.5829 16.3558 38.0592 16.6833C37.5358 17.0113 36.8979 17.1753 36.1453 17.1753C35.0841 17.1748 34.2651 16.8994 33.6882 16.3491C33.1114 15.7985 32.8297 15.0518 32.8297 14.1211C32.8297 13.0988 33.203 12.3258 33.9436 11.8143C34.684 11.3035 35.7717 11.0481 37.2067 11.0481H39.0613V10.1828C39.0613 9.55467 38.8911 9.06766 38.5505 8.72172C38.2095 8.38072 37.6785 8.21022 36.9513 8.21022C36.3493 8.21022 35.8558 8.3414 35.4707 8.60378C35.0857 8.8703 34.758 9.21128 34.507 9.60656L33.2226 8.44676C33.5636 7.86989 34.042 7.39141 34.6647 7.01806C35.2807 6.64472 36.0934 6.45467 37.0888 6.45467C38.4191 6.45467 39.4347 6.76265 40.1423 7.37793C40.8499 7.99456 41.2044 8.88548 41.2044 10.0385V15.1825H42.2853V16.9387H41.0797H41.0925ZM36.7545 15.537C37.4231 15.537 37.9804 15.386 38.4124 15.0909C38.845 14.7964 39.0613 14.3967 39.0613 13.898V12.4175H37.2465C35.7592 12.4175 35.0185 12.8757 35.0185 13.8003V14.1541C35.0185 14.6124 35.1756 14.9601 35.4835 15.1893C35.7915 15.4184 36.2181 15.5363 36.7552 15.5363M49.35 16.9381V15.2014L54.8478 8.43935H49.5272V6.65752L57.3904 6.6838V8.34163L51.8138 15.1825H57.5279V16.9387L49.35 16.9381ZM29.2397 16.9448C29.0718 16.9453 28.9054 16.9127 28.7501 16.8486C28.5949 16.7846 28.4538 16.6905 28.335 16.5718C28.2163 16.453 28.1222 16.3119 28.0582 16.1567C27.9941 16.0014 27.9615 15.835 27.962 15.6671V4.12832H30.1111V15.1893H31.5331V16.9455L29.2397 16.9448ZM59.7417 5.40606C59.9095 5.40606 60.0757 5.37301 60.2307 5.3088C60.3857 5.24459 60.5266 5.15047 60.6452 5.03182C60.7639 4.91317 60.858 4.77232 60.9222 4.61729C60.9864 4.46227 61.0194 4.29612 61.0194 4.12832C61.0194 3.96053 60.9864 3.79438 60.9222 3.63936C60.858 3.48433 60.7639 3.34348 60.6452 3.22483C60.5266 3.10618 60.3857 3.01206 60.2307 2.94785C60.0757 2.88364 59.9095 2.85059 59.7417 2.85059C59.4028 2.85059 59.0778 2.9852 58.8382 3.22483C58.5986 3.46445 58.464 3.78945 58.464 4.12832C58.464 4.4672 58.5986 4.7922 58.8382 5.03182C59.0778 5.27145 59.4028 5.40606 59.7417 5.40606ZM42.4821 6.66426H42.2921V8.44676H43.9364V14.7175C43.9364 15.4251 44.1265 15.9757 44.5066 16.3619C44.8866 16.7487 45.45 16.9455 46.2041 16.9455H48.0776V15.1893H46.0862V8.44676H48.2353V6.66426H46.0855V4.11485H44.1528V5.38652C44.1528 6.08739 43.5826 6.65752 42.8818 6.65752H42.4821V6.66426ZM58.6675 6.69054H60.8173V16.9387H58.6675V6.69054Z" fill="#0AE98A"/>
<path fill-rule="evenodd" clip-rule="evenodd" d="M6.1926 3.23675L0.75412 8.67523C0.272631 9.15675 0.00213623 9.80981 0.00213623 10.4908C0.00213623 11.1717 0.272631 11.8248 0.75412 12.3063L6.19934 17.7515C6.68083 18.2328 7.33374 18.5031 8.01452 18.5031C8.6953 18.5031 9.34822 18.2328 9.82971 17.7515L11.6446 15.936L9.82971 14.1211L8.01418 15.936L2.56897 10.4908L8.00745 5.05228L11.6378 8.68264L8.00745 12.3123L9.82297 14.1279L13.4533 10.4975C13.9346 10.016 14.205 9.36309 14.205 8.68231C14.205 8.00153 13.9346 7.34861 13.4533 6.86712L9.82297 3.23675C9.34148 2.75547 8.68857 2.48511 8.00778 2.48511C7.327 2.48511 6.67409 2.75547 6.1926 3.23675Z" fill="#0AE98A"/>
</g>
</svg>
