<svg width="350" height="350" viewBox="0 0 350 350" fill="none" xmlns="http://www.w3.org/2000/svg">
<path d="M0 0H350V350H0V0Z" fill="#94A3B8" fill-opacity="0.2"/>
<path d="M160.68 172.696C162.806 170.929 164.949 170.929 167.125 172.747L167.628 173.203L190.812 196.388L191.25 196.773C192.144 197.467 193.261 197.81 194.391 197.739C195.521 197.668 196.586 197.187 197.386 196.386C198.187 195.586 198.668 194.521 198.739 193.391C198.81 192.261 198.467 191.144 197.773 190.25L197.388 189.812L191.38 183.8L192.738 182.438L193.23 181.996C195.356 180.229 197.499 180.229 199.675 182.047L200.178 182.503L221.912 204.241C221.471 208.669 219.458 212.793 216.238 215.864C213.017 218.934 208.802 220.748 204.358 220.977L203.4 221H147.6C142.987 221 138.538 219.285 135.118 216.189C131.698 213.093 129.551 208.836 129.093 204.246L160.188 173.138L160.68 172.696ZM203.4 128C208.172 128 212.762 129.834 216.219 133.123C219.677 136.412 221.738 140.904 221.977 145.67L222 146.6V191.17L206.688 175.862L205.99 175.225C200.15 170.134 192.738 170.124 186.944 175.146L186.228 175.797L184.8 177.22L174.138 166.562L173.44 165.925C167.6 160.834 160.188 160.824 154.394 165.846L153.678 166.497L129 191.17V146.6C129 141.828 130.834 137.238 134.123 133.781C137.412 130.323 141.904 128.262 146.67 128.023L147.6 128H203.4ZM189.497 151.25L188.906 151.283C187.776 151.417 186.734 151.961 185.978 152.812C185.223 153.663 184.805 154.762 184.805 155.9C184.805 157.038 185.223 158.137 185.978 158.988C186.734 159.839 187.776 160.383 188.906 160.517L189.45 160.55L190.041 160.517C191.171 160.383 192.212 159.839 192.968 158.988C193.724 158.137 194.141 157.038 194.141 155.9C194.141 154.762 193.724 153.663 192.968 152.812C192.212 151.961 191.171 151.417 190.041 151.283L189.497 151.25Z" fill="white"/>
<path d="M0 0H350V350H0V0Z" stroke="white"/>
<path d="M160.68 172.696C162.806 170.929 164.949 170.929 167.125 172.747L167.628 173.203L190.812 196.388L191.25 196.773C192.144 197.467 193.261 197.81 194.391 197.739C195.521 197.668 196.586 197.187 197.386 196.386C198.187 195.586 198.668 194.521 198.739 193.391C198.81 192.261 198.467 191.144 197.773 190.25L197.388 189.812L191.38 183.8L192.738 182.438L193.23 181.996C195.356 180.229 197.499 180.229 199.675 182.047L200.178 182.503L221.912 204.241C221.471 208.669 219.458 212.793 216.238 215.864C213.017 218.934 208.802 220.748 204.358 220.977L203.4 221H147.6C142.987 221 138.538 219.285 135.118 216.189C131.698 213.093 129.551 208.836 129.093 204.246L160.188 173.138L160.68 172.696ZM203.4 128C208.172 128 212.762 129.834 216.219 133.123C219.677 136.412 221.738 140.904 221.977 145.67L222 146.6V191.17L206.688 175.862L205.99 175.225C200.15 170.134 192.738 170.124 186.944 175.146L186.228 175.797L184.8 177.22L174.138 166.562L173.44 165.925C167.6 160.834 160.188 160.824 154.394 165.846L153.678 166.497L129 191.17V146.6C129 141.828 130.834 137.238 134.123 133.781C137.412 130.323 141.904 128.262 146.67 128.023L147.6 128H203.4ZM189.497 151.25L188.906 151.283C187.776 151.417 186.734 151.961 185.978 152.812C185.223 153.663 184.805 154.762 184.805 155.9C184.805 157.038 185.223 158.137 185.978 158.988C186.734 159.839 187.776 160.383 188.906 160.517L189.45 160.55L190.041 160.517C191.171 160.383 192.212 159.839 192.968 158.988C193.724 158.137 194.141 157.038 194.141 155.9C194.141 154.762 193.724 153.663 192.968 152.812C192.212 151.961 191.171 151.417 190.041 151.283L189.497 151.25Z" stroke="white"/>
</svg>
