<svg width="62" height="22" viewBox="0 0 62 22" fill="none" xmlns="http://www.w3.org/2000/svg">
<mask id="mask0_338_9" style="mask-type:luminance" maskUnits="userSpaceOnUse" x="0" y="0" width="62" height="22">
<path d="M0 0H61.378V21.5652H0V0Z" fill="white"/>
</mask>
<g mask="url(#mask0_338_9)">
<path d="M16.7622 16.9388V4.11491H22.6724C23.9509 4.11491 24.9334 4.48893 25.6282 5.23563C26.323 5.98232 26.6701 6.99184 26.6701 8.25004C26.6701 9.50823 26.323 10.5171 25.6282 11.2645C24.9341 12.0111 23.9441 12.3845 22.6731 12.3845H18.9834V16.9321H16.7555L16.7622 16.9388ZM18.9902 10.4187H22.535C23.099 10.4187 23.5378 10.2745 23.8592 9.97997C24.1737 9.6848 24.3309 9.2654 24.3309 8.72178V7.78504C24.3309 7.24119 24.1733 6.8146 23.8592 6.52684C23.5445 6.23167 23.1051 6.08745 22.535 6.08745H18.9902V10.4254V10.4187ZM41.0925 16.9388C40.5291 16.9388 40.0965 16.775 39.7885 16.4536C39.4873 16.1328 39.3033 15.7204 39.2386 15.2223H39.1402C38.9434 15.8646 38.5829 16.3559 38.0592 16.6834C37.5358 17.0114 36.8979 17.1753 36.1453 17.1753C35.0841 17.1749 34.2651 16.8995 33.6882 16.3491C33.1114 15.7985 32.8297 15.0518 32.8297 14.1212C32.8297 13.0988 33.203 12.3259 33.9436 11.8144C34.684 11.3035 35.7717 11.0481 37.2067 11.0481H39.0613V10.1828C39.0613 9.55473 38.8911 9.06772 38.5505 8.72178C38.2095 8.38078 37.6785 8.21028 36.9513 8.21028C36.3493 8.21028 35.8558 8.34147 35.4707 8.60384C35.0857 8.87036 34.758 9.21134 34.507 9.60662L33.2226 8.44682C33.5636 7.86995 34.042 7.39147 34.6647 7.01812C35.2807 6.64478 36.0934 6.45473 37.0888 6.45473C38.4191 6.45473 39.4347 6.76271 40.1423 7.37799C40.8499 7.99463 41.2044 8.88554 41.2044 10.0386V15.1826H42.2853V16.9388H41.0797H41.0925ZM36.7545 15.5371C37.4231 15.5371 37.9804 15.3861 38.4124 15.0909C38.845 14.7964 39.0613 14.3968 39.0613 13.8981V12.4175H37.2465C35.7592 12.4175 35.0185 12.8758 35.0185 13.8004V14.1542C35.0185 14.6125 35.1756 14.9602 35.4835 15.1893C35.7915 15.4185 36.2181 15.5364 36.7552 15.5364M49.35 16.9381V15.2015L54.8478 8.43941H49.5272V6.65758L57.3904 6.68386V8.34169L51.8138 15.1826H57.5279V16.9388L49.35 16.9381ZM29.2397 16.9449C29.0718 16.9454 28.9054 16.9127 28.7501 16.8487C28.5949 16.7847 28.4538 16.6906 28.335 16.5718C28.2163 16.4531 28.1222 16.312 28.0582 16.1567C27.9941 16.0015 27.9615 15.8351 27.962 15.6671V4.12839H30.1111V15.1893H31.5331V16.9455L29.2397 16.9449ZM59.7417 5.40613C59.9095 5.40613 60.0757 5.37308 60.2307 5.30886C60.3857 5.24465 60.5266 5.15053 60.6452 5.03188C60.7639 4.91323 60.858 4.77238 60.9222 4.61736C60.9864 4.46233 61.0194 4.29618 61.0194 4.12839C61.0194 3.96059 60.9864 3.79444 60.9222 3.63942C60.858 3.48439 60.7639 3.34354 60.6452 3.22489C60.5266 3.10624 60.3857 3.01212 60.2307 2.94791C60.0757 2.8837 59.9095 2.85065 59.7417 2.85065C59.4028 2.85065 59.0778 2.98527 58.8382 3.22489C58.5986 3.46451 58.464 3.78951 58.464 4.12839C58.464 4.46726 58.5986 4.79226 58.8382 5.03188C59.0778 5.27151 59.4028 5.40613 59.7417 5.40613ZM42.4821 6.66432H42.2921V8.44682H43.9364V14.7176C43.9364 15.4252 44.1265 15.9758 44.5066 16.3619C44.8866 16.7488 45.45 16.9455 46.2041 16.9455H48.0776V15.1893H46.0862V8.44682H48.2353V6.66432H46.0855V4.11491H44.1528V5.38658C44.1528 6.08745 43.5826 6.65758 42.8818 6.65758H42.4821V6.66432ZM58.6675 6.6906H60.8173V16.9388H58.6675V6.6906Z" fill="#0AE98A"/>
<path fill-rule="evenodd" clip-rule="evenodd" d="M6.1926 3.23681L0.75412 8.67529C0.272631 9.15681 0.00213623 9.80987 0.00213623 10.4908C0.00213623 11.1718 0.272631 11.8248 0.75412 12.3063L6.19934 17.7516C6.68083 18.2328 7.33374 18.5032 8.01452 18.5032C8.6953 18.5032 9.34822 18.2328 9.82971 17.7516L11.6446 15.936L9.82971 14.1212L8.01418 15.936L2.56897 10.4908L8.00745 5.05234L11.6378 8.68271L8.00745 12.3124L9.82297 14.1279L13.4533 10.4976C13.9346 10.0161 14.205 9.36315 14.205 8.68237C14.205 8.00159 13.9346 7.34867 13.4533 6.86718L9.82297 3.23681C9.34148 2.75553 8.68857 2.48517 8.00778 2.48517C7.327 2.48517 6.67409 2.75553 6.1926 3.23681Z" fill="#0AE98A"/>
</g>
</svg>
