<svg width="381" height="80" viewBox="0 0 381 80" fill="none" xmlns="http://www.w3.org/2000/svg">
<g filter="url(#filter0_d_331_20)">
<path d="M88.88 44.28C85.6 44.28 82.9067 43.5067 80.8 41.96C78.6933 40.3867 77.56 38.1467 77.4 35.24H85.76C85.84 36.2267 86.1333 36.9467 86.64 37.4C87.1467 37.8533 87.8 38.08 88.6 38.08C89.32 38.08 89.9067 37.9067 90.36 37.56C90.84 37.1867 91.08 36.68 91.08 36.04C91.08 35.2133 90.6933 34.5733 89.92 34.12C89.1467 33.6667 87.8933 33.16 86.16 32.6C84.32 31.9867 82.8267 31.4 81.68 30.84C80.56 30.2533 79.5733 29.4133 78.72 28.32C77.8933 27.2 77.48 25.7467 77.48 23.96C77.48 22.1467 77.9333 20.6 78.84 19.32C79.7467 18.0133 81 17.0267 82.6 16.36C84.2 15.6933 86.0133 15.36 88.04 15.36C91.32 15.36 93.9333 16.1333 95.88 17.68C97.8533 19.2 98.9067 21.3467 99.04 24.12H90.52C90.4933 23.2667 90.2267 22.6267 89.72 22.2C89.24 21.7733 88.6133 21.56 87.84 21.56C87.2533 21.56 86.7733 21.7333 86.4 22.08C86.0267 22.4267 85.84 22.92 85.84 23.56C85.84 24.0933 86.04 24.56 86.44 24.96C86.8667 25.3333 87.3867 25.6667 88 25.96C88.6133 26.2267 89.52 26.5733 90.72 27C92.5067 27.6133 93.9733 28.2267 95.12 28.84C96.2933 29.4267 97.2933 30.2667 98.12 31.36C98.9733 32.4267 99.4 33.7867 99.4 35.44C99.4 37.12 98.9733 38.6267 98.12 39.96C97.2933 41.2933 96.08 42.3467 94.48 43.12C92.9067 43.8933 91.04 44.28 88.88 44.28ZM124.485 32.52C124.485 33.1333 124.445 33.7467 124.365 34.36H109.525C109.605 35.5867 109.938 36.5067 110.525 37.12C111.138 37.7067 111.911 38 112.845 38C114.151 38 115.085 37.4133 115.645 36.24H124.005C123.658 37.7867 122.978 39.1733 121.965 40.4C120.978 41.6 119.725 42.5467 118.205 43.24C116.685 43.9333 115.005 44.28 113.165 44.28C110.951 44.28 108.978 43.8133 107.245 42.88C105.538 41.9467 104.191 40.6133 103.205 38.88C102.245 37.1467 101.765 35.1067 101.765 32.76C101.765 30.4133 102.245 28.3867 103.205 26.68C104.165 24.9467 105.498 23.6133 107.205 22.68C108.938 21.7467 110.925 21.28 113.165 21.28C115.378 21.28 117.338 21.7333 119.045 22.64C120.751 23.5467 122.085 24.8533 123.045 26.56C124.005 28.24 124.485 30.2267 124.485 32.52ZM116.485 30.56C116.485 29.6 116.165 28.8533 115.525 28.32C114.885 27.76 114.085 27.48 113.125 27.48C112.165 27.48 111.378 27.7467 110.765 28.28C110.151 28.7867 109.751 29.5467 109.565 30.56H116.485ZM135.533 24.68C136.146 23.6133 137.013 22.7867 138.133 22.2C139.253 21.5867 140.573 21.28 142.093 21.28C143.88 21.28 145.493 21.7467 146.933 22.68C148.4 23.6133 149.546 24.9467 150.373 26.68C151.226 28.4133 151.653 30.44 151.653 32.76C151.653 35.08 151.226 37.12 150.373 38.88C149.546 40.6133 148.4 41.9467 146.933 42.88C145.493 43.8133 143.88 44.28 142.093 44.28C140.573 44.28 139.253 43.9867 138.133 43.4C137.013 42.7867 136.146 41.9467 135.533 40.88V44H127.693V14.4H135.533V24.68ZM143.693 32.76C143.693 31.2933 143.293 30.16 142.493 29.36C141.72 28.5333 140.76 28.12 139.613 28.12C138.466 28.12 137.493 28.5333 136.693 29.36C135.92 30.1867 135.533 31.32 135.533 32.76C135.533 34.2267 135.92 35.3733 136.693 36.2C137.493 37.0267 138.466 37.44 139.613 37.44C140.76 37.44 141.72 37.0267 142.493 36.2C143.293 35.3467 143.693 34.2 143.693 32.76ZM153.601 32.76C153.601 30.44 154.014 28.4133 154.841 26.68C155.694 24.9467 156.841 23.6133 158.281 22.68C159.747 21.7467 161.374 21.28 163.161 21.28C164.707 21.28 166.041 21.5867 167.161 22.2C168.281 22.8133 169.147 23.64 169.761 24.68V21.56H177.601V44H169.761V40.88C169.147 41.92 168.267 42.7467 167.121 43.36C166.001 43.9733 164.681 44.28 163.161 44.28C161.374 44.28 159.747 43.8133 158.281 42.88C156.841 41.9467 155.694 40.6133 154.841 38.88C154.014 37.12 153.601 35.08 153.601 32.76ZM169.761 32.76C169.761 31.32 169.361 30.1867 168.561 29.36C167.787 28.5333 166.827 28.12 165.681 28.12C164.507 28.12 163.534 28.5333 162.761 29.36C161.987 30.16 161.601 31.2933 161.601 32.76C161.601 34.2 161.987 35.3467 162.761 36.2C163.534 37.0267 164.507 37.44 165.681 37.44C166.827 37.44 167.787 37.0267 168.561 36.2C169.361 35.3733 169.761 34.2267 169.761 32.76ZM191.628 44.28C189.601 44.28 187.788 43.9467 186.188 43.28C184.615 42.5867 183.361 41.6533 182.428 40.48C181.521 39.28 181.015 37.9333 180.908 36.44H188.508C188.615 37.16 188.948 37.72 189.508 38.12C190.068 38.52 190.761 38.72 191.588 38.72C192.228 38.72 192.735 38.5867 193.108 38.32C193.481 38.0533 193.668 37.7067 193.668 37.28C193.668 36.72 193.361 36.3067 192.748 36.04C192.135 35.7733 191.121 35.48 189.708 35.16C188.108 34.84 186.775 34.48 185.708 34.08C184.641 33.68 183.708 33.0267 182.908 32.12C182.135 31.2133 181.748 29.9867 181.748 28.44C181.748 27.1067 182.108 25.9067 182.828 24.84C183.548 23.7467 184.601 22.88 185.988 22.24C187.401 21.6 189.095 21.28 191.068 21.28C194.001 21.28 196.308 22 197.988 23.44C199.668 24.88 200.641 26.7733 200.908 29.12H193.828C193.695 28.4 193.375 27.8533 192.868 27.48C192.388 27.08 191.735 26.88 190.908 26.88C190.268 26.88 189.775 27 189.428 27.24C189.108 27.48 188.948 27.8133 188.948 28.24C188.948 28.7733 189.255 29.1867 189.868 29.48C190.481 29.7467 191.468 30.0267 192.828 30.32C194.455 30.6667 195.801 31.0533 196.868 31.48C197.961 31.9067 198.908 32.6 199.708 33.56C200.535 34.4933 200.948 35.7733 200.948 37.4C200.948 38.7067 200.561 39.88 199.788 40.92C199.041 41.96 197.961 42.7867 196.548 43.4C195.161 43.9867 193.521 44.28 191.628 44.28ZM234.739 25.2C234.739 26.9067 234.339 28.4667 233.539 29.88C232.765 31.2667 231.579 32.3867 229.979 33.24C228.405 34.0667 226.472 34.48 224.179 34.48H220.299V44H212.459V15.8H224.179C226.445 15.8 228.365 16.2 229.939 17C231.539 17.8 232.739 18.9067 233.539 20.32C234.339 21.7333 234.739 23.36 234.739 25.2ZM223.419 28.24C225.632 28.24 226.739 27.2267 226.739 25.2C226.739 23.1467 225.632 22.12 223.419 22.12H220.299V28.24H223.419ZM259.328 32.52C259.328 33.1333 259.288 33.7467 259.208 34.36H244.368C244.448 35.5867 244.782 36.5067 245.368 37.12C245.982 37.7067 246.755 38 247.688 38C248.995 38 249.928 37.4133 250.488 36.24H258.848C258.502 37.7867 257.822 39.1733 256.808 40.4C255.822 41.6 254.568 42.5467 253.048 43.24C251.528 43.9333 249.848 44.28 248.008 44.28C245.795 44.28 243.822 43.8133 242.088 42.88C240.382 41.9467 239.035 40.6133 238.048 38.88C237.088 37.1467 236.608 35.1067 236.608 32.76C236.608 30.4133 237.088 28.3867 238.048 26.68C239.008 24.9467 240.342 23.6133 242.048 22.68C243.782 21.7467 245.768 21.28 248.008 21.28C250.222 21.28 252.182 21.7333 253.888 22.64C255.595 23.5467 256.928 24.8533 257.888 26.56C258.848 28.24 259.328 30.2267 259.328 32.52ZM251.328 30.56C251.328 29.6 251.008 28.8533 250.368 28.32C249.728 27.76 248.928 27.48 247.968 27.48C247.008 27.48 246.222 27.7467 245.608 28.28C244.995 28.7867 244.595 29.5467 244.408 30.56H251.328ZM261.257 32.76C261.257 30.44 261.67 28.4133 262.497 26.68C263.35 24.9467 264.51 23.6133 265.977 22.68C267.444 21.7467 269.07 21.28 270.857 21.28C272.297 21.28 273.577 21.5867 274.697 22.2C275.844 22.7867 276.737 23.6 277.377 24.64V14.4H285.257V44H277.377V40.88C276.764 41.92 275.897 42.7467 274.777 43.36C273.657 43.9733 272.337 44.28 270.817 44.28C269.03 44.28 267.404 43.8133 265.937 42.88C264.497 41.9467 263.35 40.6133 262.497 38.88C261.67 37.12 261.257 35.08 261.257 32.76ZM277.417 32.76C277.417 31.32 277.017 30.1867 276.217 29.36C275.444 28.5333 274.484 28.12 273.337 28.12C272.164 28.12 271.19 28.5333 270.417 29.36C269.644 30.16 269.257 31.2933 269.257 32.76C269.257 34.2 269.644 35.3467 270.417 36.2C271.19 37.0267 272.164 37.44 273.337 37.44C274.484 37.44 275.444 37.0267 276.217 36.2C277.017 35.3733 277.417 34.2267 277.417 32.76ZM297.564 25.52C298.444 24.24 299.511 23.2267 300.764 22.48C302.018 21.7333 303.364 21.36 304.804 21.36V29.72H302.604C300.898 29.72 299.631 30.0533 298.804 30.72C297.978 31.3867 297.564 32.5467 297.564 34.2V44H289.724V21.56H297.564V25.52ZM318.055 44.28C315.815 44.28 313.802 43.8133 312.015 42.88C310.255 41.9467 308.868 40.6133 307.855 38.88C306.842 37.1467 306.335 35.1067 306.335 32.76C306.335 30.44 306.842 28.4133 307.855 26.68C308.895 24.9467 310.295 23.6133 312.055 22.68C313.842 21.7467 315.855 21.28 318.095 21.28C320.335 21.28 322.335 21.7467 324.095 22.68C325.882 23.6133 327.282 24.9467 328.295 26.68C329.335 28.4133 329.855 30.44 329.855 32.76C329.855 35.08 329.335 37.12 328.295 38.88C327.282 40.6133 325.882 41.9467 324.095 42.88C322.308 43.8133 320.295 44.28 318.055 44.28ZM318.055 37.48C319.148 37.48 320.055 37.08 320.775 36.28C321.522 35.4533 321.895 34.28 321.895 32.76C321.895 31.24 321.522 30.08 320.775 29.28C320.055 28.48 319.162 28.08 318.095 28.08C317.028 28.08 316.135 28.48 315.415 29.28C314.695 30.08 314.335 31.24 314.335 32.76C314.335 34.3067 314.682 35.48 315.375 36.28C316.068 37.08 316.962 37.48 318.055 37.48ZM340.485 37.48H350.045V44H331.845V37.8L340.765 28.08H331.925V21.56H349.725V27.76L340.485 37.48ZM352.038 32.76C352.038 30.44 352.451 28.4133 353.278 26.68C354.131 24.9467 355.278 23.6133 356.718 22.68C358.185 21.7467 359.811 21.28 361.598 21.28C363.145 21.28 364.478 21.5867 365.598 22.2C366.718 22.8133 367.585 23.64 368.198 24.68V21.56H376.038V44H368.198V40.88C367.585 41.92 366.705 42.7467 365.558 43.36C364.438 43.9733 363.118 44.28 361.598 44.28C359.811 44.28 358.185 43.8133 356.718 42.88C355.278 41.9467 354.131 40.6133 353.278 38.88C352.451 37.12 352.038 35.08 352.038 32.76ZM368.198 32.76C368.198 31.32 367.798 30.1867 366.998 29.36C366.225 28.5333 365.265 28.12 364.118 28.12C362.945 28.12 361.971 28.5333 361.198 29.36C360.425 30.16 360.038 31.2933 360.038 32.76C360.038 34.2 360.425 35.3467 361.198 36.2C361.971 37.0267 362.945 37.44 364.118 37.44C365.265 37.44 366.225 37.0267 366.998 36.2C367.798 35.3733 368.198 34.2267 368.198 32.76Z" fill="red"/>
</g>
<path d="M85.264 47.824V50.56H82.408V71.944H85.264V74.728H79.24V47.824H85.264ZM99.9297 53.248V55.96H92.9457V60.256H98.2977V62.92H92.9457V70H89.5857V53.248H99.9297ZM105.672 58.768C106.104 58.064 106.664 57.512 107.352 57.112C108.056 56.712 108.856 56.512 109.752 56.512V60.04H108.864C107.808 60.04 107.008 60.288 106.464 60.784C105.936 61.28 105.672 62.144 105.672 63.376V70H102.312V56.704H105.672V58.768ZM117.919 70.216C116.639 70.216 115.487 69.936 114.463 69.376C113.439 68.8 112.631 67.992 112.039 66.952C111.463 65.912 111.175 64.712 111.175 63.352C111.175 61.992 111.471 60.792 112.063 59.752C112.671 58.712 113.495 57.912 114.535 57.352C115.575 56.776 116.735 56.488 118.015 56.488C119.295 56.488 120.455 56.776 121.495 57.352C122.535 57.912 123.351 58.712 123.943 59.752C124.551 60.792 124.855 61.992 124.855 63.352C124.855 64.712 124.543 65.912 123.919 66.952C123.311 67.992 122.479 68.8 121.423 69.376C120.383 69.936 119.215 70.216 117.919 70.216ZM117.919 67.288C118.527 67.288 119.095 67.144 119.623 66.856C120.167 66.552 120.599 66.104 120.919 65.512C121.239 64.92 121.399 64.2 121.399 63.352C121.399 62.088 121.063 61.12 120.391 60.448C119.735 59.76 118.927 59.416 117.967 59.416C117.007 59.416 116.199 59.76 115.543 60.448C114.903 61.12 114.583 62.088 114.583 63.352C114.583 64.616 114.895 65.592 115.519 66.28C116.159 66.952 116.959 67.288 117.919 67.288ZM134.688 56.512C136.272 56.512 137.552 57.016 138.528 58.024C139.504 59.016 139.992 60.408 139.992 62.2V70H136.632V62.656C136.632 61.6 136.368 60.792 135.84 60.232C135.312 59.656 134.592 59.368 133.68 59.368C132.752 59.368 132.016 59.656 131.472 60.232C130.944 60.792 130.68 61.6 130.68 62.656V70H127.32V56.704H130.68V58.36C131.128 57.784 131.696 57.336 132.384 57.016C133.088 56.68 133.856 56.512 134.688 56.512ZM147.099 59.464V65.896C147.099 66.344 147.203 66.672 147.411 66.88C147.635 67.072 148.003 67.168 148.515 67.168H150.075V70H147.963C145.131 70 143.715 68.624 143.715 65.872V59.464H142.131V56.704H143.715V53.416H147.099V56.704H150.075V59.464H147.099ZM164.852 63.064C164.852 63.544 164.82 63.976 164.756 64.36H155.036C155.116 65.32 155.452 66.072 156.044 66.616C156.636 67.16 157.364 67.432 158.228 67.432C159.476 67.432 160.364 66.896 160.892 65.824H164.516C164.132 67.104 163.396 68.16 162.308 68.992C161.22 69.808 159.884 70.216 158.3 70.216C157.02 70.216 155.868 69.936 154.844 69.376C153.836 68.8 153.044 67.992 152.468 66.952C151.908 65.912 151.628 64.712 151.628 63.352C151.628 61.976 151.908 60.768 152.468 59.728C153.028 58.688 153.812 57.888 154.82 57.328C155.828 56.768 156.988 56.488 158.3 56.488C159.564 56.488 160.692 56.76 161.684 57.304C162.692 57.848 163.468 58.624 164.012 59.632C164.572 60.624 164.852 61.768 164.852 63.064ZM161.372 62.104C161.356 61.24 161.044 60.552 160.436 60.04C159.828 59.512 159.084 59.248 158.204 59.248C157.372 59.248 156.668 59.504 156.092 60.016C155.532 60.512 155.188 61.208 155.06 62.104H161.372ZM174.672 56.512C176.256 56.512 177.536 57.016 178.512 58.024C179.488 59.016 179.976 60.408 179.976 62.2V70H176.616V62.656C176.616 61.6 176.352 60.792 175.824 60.232C175.296 59.656 174.576 59.368 173.664 59.368C172.736 59.368 172 59.656 171.456 60.232C170.928 60.792 170.664 61.6 170.664 62.656V70H167.304V56.704H170.664V58.36C171.112 57.784 171.68 57.336 172.368 57.016C173.072 56.68 173.84 56.512 174.672 56.512ZM182.308 63.304C182.308 61.96 182.572 60.768 183.1 59.728C183.644 58.688 184.38 57.888 185.308 57.328C186.236 56.768 187.268 56.488 188.404 56.488C189.268 56.488 190.092 56.68 190.876 57.064C191.66 57.432 192.284 57.928 192.748 58.552V52.24H196.156V70H192.748V68.032C192.332 68.688 191.748 69.216 190.996 69.616C190.244 70.016 189.372 70.216 188.38 70.216C187.26 70.216 186.236 69.928 185.308 69.352C184.38 68.776 183.644 67.968 183.1 66.928C182.572 65.872 182.308 64.664 182.308 63.304ZM192.772 63.352C192.772 62.536 192.612 61.84 192.292 61.264C191.972 60.672 191.54 60.224 190.996 59.92C190.452 59.6 189.868 59.44 189.244 59.44C188.62 59.44 188.044 59.592 187.516 59.896C186.988 60.2 186.556 60.648 186.22 61.24C185.9 61.816 185.74 62.504 185.74 63.304C185.74 64.104 185.9 64.808 186.22 65.416C186.556 66.008 186.988 66.464 187.516 66.784C188.06 67.104 188.636 67.264 189.244 67.264C189.868 67.264 190.452 67.112 190.996 66.808C191.54 66.488 191.972 66.04 192.292 65.464C192.612 64.872 192.772 64.168 192.772 63.352ZM211.012 53.248C212.772 53.248 214.316 53.592 215.644 54.28C216.988 54.968 218.02 55.952 218.74 57.232C219.476 58.496 219.844 59.968 219.844 61.648C219.844 63.328 219.476 64.8 218.74 66.064C218.02 67.312 216.988 68.28 215.644 68.968C214.316 69.656 212.772 70 211.012 70H205.156V53.248H211.012ZM210.892 67.144C212.652 67.144 214.012 66.664 214.972 65.704C215.932 64.744 216.412 63.392 216.412 61.648C216.412 59.904 215.932 58.544 214.972 57.568C214.012 56.576 212.652 56.08 210.892 56.08H208.516V67.144H210.892ZM234.719 63.064C234.719 63.544 234.687 63.976 234.623 64.36H224.903C224.983 65.32 225.319 66.072 225.911 66.616C226.503 67.16 227.231 67.432 228.095 67.432C229.343 67.432 230.231 66.896 230.759 65.824H234.383C233.999 67.104 233.263 68.16 232.175 68.992C231.087 69.808 229.751 70.216 228.167 70.216C226.887 70.216 225.735 69.936 224.711 69.376C223.703 68.8 222.911 67.992 222.335 66.952C221.775 65.912 221.495 64.712 221.495 63.352C221.495 61.976 221.775 60.768 222.335 59.728C222.895 58.688 223.679 57.888 224.687 57.328C225.695 56.768 226.855 56.488 228.167 56.488C229.431 56.488 230.559 56.76 231.551 57.304C232.559 57.848 233.335 58.624 233.879 59.632C234.439 60.624 234.719 61.768 234.719 63.064ZM231.239 62.104C231.223 61.24 230.911 60.552 230.303 60.04C229.695 59.512 228.951 59.248 228.071 59.248C227.239 59.248 226.535 59.504 225.959 60.016C225.399 60.512 225.055 61.208 224.927 62.104H231.239ZM242.716 66.904L246.076 56.704H249.652L244.732 70H240.652L235.756 56.704H239.356L242.716 66.904ZM263.899 63.064C263.899 63.544 263.867 63.976 263.803 64.36H254.083C254.163 65.32 254.499 66.072 255.091 66.616C255.683 67.16 256.411 67.432 257.275 67.432C258.523 67.432 259.411 66.896 259.939 65.824H263.563C263.179 67.104 262.443 68.16 261.355 68.992C260.267 69.808 258.931 70.216 257.347 70.216C256.067 70.216 254.915 69.936 253.891 69.376C252.883 68.8 252.091 67.992 251.515 66.952C250.955 65.912 250.675 64.712 250.675 63.352C250.675 61.976 250.955 60.768 251.515 59.728C252.075 58.688 252.859 57.888 253.867 57.328C254.875 56.768 256.035 56.488 257.347 56.488C258.611 56.488 259.739 56.76 260.731 57.304C261.739 57.848 262.515 58.624 263.059 59.632C263.619 60.624 263.899 61.768 263.899 63.064ZM260.419 62.104C260.403 61.24 260.091 60.552 259.483 60.04C258.875 59.512 258.131 59.248 257.251 59.248C256.419 59.248 255.715 59.504 255.139 60.016C254.579 60.512 254.235 61.208 254.107 62.104H260.419ZM269.711 52.24V70H266.351V52.24H269.711ZM278.935 70.216C277.655 70.216 276.503 69.936 275.479 69.376C274.455 68.8 273.647 67.992 273.055 66.952C272.479 65.912 272.191 64.712 272.191 63.352C272.191 61.992 272.487 60.792 273.079 59.752C273.687 58.712 274.511 57.912 275.551 57.352C276.591 56.776 277.751 56.488 279.031 56.488C280.311 56.488 281.471 56.776 282.511 57.352C283.551 57.912 284.367 58.712 284.959 59.752C285.567 60.792 285.871 61.992 285.871 63.352C285.871 64.712 285.559 65.912 284.935 66.952C284.327 67.992 283.495 68.8 282.439 69.376C281.399 69.936 280.231 70.216 278.935 70.216ZM278.935 67.288C279.543 67.288 280.111 67.144 280.639 66.856C281.183 66.552 281.615 66.104 281.935 65.512C282.255 64.92 282.415 64.2 282.415 63.352C282.415 62.088 282.079 61.12 281.407 60.448C280.751 59.76 279.943 59.416 278.983 59.416C278.023 59.416 277.215 59.76 276.559 60.448C275.919 61.12 275.599 62.088 275.599 63.352C275.599 64.616 275.911 65.592 276.535 66.28C277.175 66.952 277.975 67.288 278.935 67.288ZM291.696 58.624C292.128 58.016 292.72 57.512 293.472 57.112C294.24 56.696 295.112 56.488 296.088 56.488C297.224 56.488 298.248 56.768 299.16 57.328C300.088 57.888 300.816 58.688 301.344 59.728C301.888 60.752 302.16 61.944 302.16 63.304C302.16 64.664 301.888 65.872 301.344 66.928C300.816 67.968 300.088 68.776 299.16 69.352C298.248 69.928 297.224 70.216 296.088 70.216C295.112 70.216 294.248 70.016 293.496 69.616C292.76 69.216 292.16 68.712 291.696 68.104V76.336H288.336V56.704H291.696V58.624ZM298.728 63.304C298.728 62.504 298.56 61.816 298.224 61.24C297.904 60.648 297.472 60.2 296.928 59.896C296.4 59.592 295.824 59.44 295.2 59.44C294.592 59.44 294.016 59.6 293.472 59.92C292.944 60.224 292.512 60.672 292.176 61.264C291.856 61.856 291.696 62.552 291.696 63.352C291.696 64.152 291.856 64.848 292.176 65.44C292.512 66.032 292.944 66.488 293.472 66.808C294.016 67.112 294.592 67.264 295.2 67.264C295.824 67.264 296.4 67.104 296.928 66.784C297.472 66.464 297.904 66.008 298.224 65.416C298.56 64.824 298.728 64.12 298.728 63.304ZM316.961 63.064C316.961 63.544 316.929 63.976 316.865 64.36H307.145C307.225 65.32 307.561 66.072 308.153 66.616C308.745 67.16 309.473 67.432 310.337 67.432C311.585 67.432 312.473 66.896 313.001 65.824H316.625C316.241 67.104 315.505 68.16 314.417 68.992C313.329 69.808 311.993 70.216 310.409 70.216C309.129 70.216 307.977 69.936 306.953 69.376C305.945 68.8 305.153 67.992 304.577 66.952C304.017 65.912 303.737 64.712 303.737 63.352C303.737 61.976 304.017 60.768 304.577 59.728C305.137 58.688 305.921 57.888 306.929 57.328C307.937 56.768 309.097 56.488 310.409 56.488C311.673 56.488 312.801 56.76 313.793 57.304C314.801 57.848 315.577 58.624 316.121 59.632C316.681 60.624 316.961 61.768 316.961 63.064ZM313.481 62.104C313.465 61.24 313.153 60.552 312.545 60.04C311.937 59.512 311.193 59.248 310.313 59.248C309.481 59.248 308.777 59.504 308.201 60.016C307.641 60.512 307.297 61.208 307.169 62.104H313.481ZM322.774 58.768C323.206 58.064 323.766 57.512 324.454 57.112C325.158 56.712 325.958 56.512 326.854 56.512V60.04H325.966C324.91 60.04 324.11 60.288 323.566 60.784C323.038 61.28 322.774 62.144 322.774 63.376V70H319.414V56.704H322.774V58.768ZM336.125 74.728H330.101V71.944H332.957V50.56H330.101V47.824H336.125V74.728Z" fill="white"/>
<rect y="8" width="72" height="72" rx="12" fill="url(#paint0_linear_331_20)"/>
<path d="M17.56 42.002C18.444 42.002 19.0593 41.872 19.406 41.612C19.77 41.352 19.952 40.936 19.952 40.364C19.952 39.9307 19.8567 39.2027 19.666 38.18C19.4233 36.8627 19.302 35.84 19.302 35.112C19.302 33.396 19.8307 32.07 20.888 31.134C21.9453 30.198 23.384 29.73 25.204 29.73H27.18V34.332H26.296C25.7413 34.332 25.3427 34.4533 25.1 34.696C24.8747 34.9387 24.762 35.2853 24.762 35.736C24.762 36.0133 24.8313 36.7067 24.97 37.816C25.1433 39.0987 25.23 40.026 25.23 40.598C25.23 41.6207 24.996 42.4613 24.528 43.12C24.06 43.7613 23.358 44.1687 22.422 44.342V44.394C23.358 44.5673 24.06 44.9833 24.528 45.642C24.996 46.2833 25.23 47.1153 25.23 48.138C25.23 48.71 25.1433 49.6373 24.97 50.92C24.8313 52.0293 24.762 52.7227 24.762 53C24.762 53.4507 24.8747 53.7973 25.1 54.04C25.3427 54.2827 25.7413 54.404 26.296 54.404H27.18V59.006H25.204C23.384 59.006 21.9453 58.538 20.888 57.602C19.8307 56.666 19.302 55.34 19.302 53.624C19.302 52.896 19.4233 51.8733 19.666 50.556C19.8567 49.5333 19.952 48.8053 19.952 48.372C19.952 47.8347 19.77 47.4273 19.406 47.15C19.042 46.8553 18.4267 46.708 17.56 46.708V42.002ZM41.2298 41.742V46.5H29.1138V41.742H41.2298ZM54.5982 46.708C53.7316 46.708 53.1162 46.8553 52.7522 47.15C52.3882 47.4273 52.2062 47.8347 52.2062 48.372C52.2062 48.8053 52.3016 49.5333 52.4922 50.556C52.7349 51.8733 52.8562 52.896 52.8562 53.624C52.8562 55.34 52.3276 56.666 51.2702 57.602C50.2129 58.538 48.7742 59.006 46.9542 59.006H44.9782V54.404H45.8622C46.4169 54.404 46.8069 54.2827 47.0322 54.04C47.2749 53.7973 47.3962 53.4507 47.3962 53C47.3962 52.7227 47.3269 52.0293 47.1882 50.92C47.0149 49.6373 46.9282 48.71 46.9282 48.138C46.9282 47.1153 47.1622 46.2833 47.6302 45.642C48.0982 44.9833 48.8002 44.5673 49.7362 44.394V44.342C48.8002 44.1687 48.0982 43.7613 47.6302 43.12C47.1622 42.4613 46.9282 41.6207 46.9282 40.598C46.9282 40.026 47.0149 39.0987 47.1882 37.816C47.3269 36.7067 47.3962 36.0133 47.3962 35.736C47.3962 35.2853 47.2749 34.9387 47.0322 34.696C46.8069 34.4533 46.4169 34.332 45.8622 34.332H44.9782V29.73H46.9542C48.7742 29.73 50.2129 30.198 51.2702 31.134C52.3276 32.07 52.8562 33.396 52.8562 35.112C52.8562 35.84 52.7349 36.8627 52.4922 38.18C52.3016 39.2027 52.2062 39.9307 52.2062 40.364C52.2062 40.936 52.3796 41.352 52.7262 41.612C53.0902 41.872 53.7142 42.002 54.5982 42.002V46.708Z" fill="white"/>
<defs>
<filter id="filter0_d_331_20" x="73.4" y="14.3999" width="306.638" height="37.8801" filterUnits="userSpaceOnUse" color-interpolation-filters="sRGB">
<feFlood flood-opacity="0" result="BackgroundImageFix"/>
<feColorMatrix in="SourceAlpha" type="matrix" values="0 0 0 0 0 0 0 0 0 0 0 0 0 0 0 0 0 0 127 0" result="hardAlpha"/>
<feOffset dy="4"/>
<feGaussianBlur stdDeviation="2"/>
<feComposite in2="hardAlpha" operator="out"/>
<feColorMatrix type="matrix" values="0 0 0 0 0 0 0 0 0 0 0 0 0 0 0 0 0 0 0.25 0"/>
<feBlend mode="normal" in2="BackgroundImageFix" result="effect1_dropShadow_331_20"/>
<feBlend mode="normal" in="SourceGraphic" in2="effect1_dropShadow_331_20" result="shape"/>
</filter>
<linearGradient id="paint0_linear_331_20" x1="18.5" y1="28.5" x2="72" y2="80" gradientUnits="userSpaceOnUse">
<stop stop-color="#007AFE"/>
<stop offset="1" stop-color="#00316D"/>
<stop offset="1" stop-color="#00316D"/>
</linearGradient>
</defs>
</svg>
